<svg width="294" height="55" viewBox="0 0 294 55" fill="none" xmlns="http://www.w3.org/2000/svg">
<rect y="3" width="119" height="52" fill="#107BB6"/>
<path d="M143.047 24.7031H134.234L132.391 30H128.281L136.875 7.25H140.422L149.031 30H144.906L143.047 24.7031ZM135.344 21.5156H141.938L138.641 12.0781L135.344 21.5156ZM154.031 13.0938L154.141 15.0469C155.391 13.5365 157.031 12.7812 159.062 12.7812C162.583 12.7812 164.375 14.7969 164.438 18.8281V30H160.641V19.0469C160.641 17.974 160.406 17.1823 159.938 16.6719C159.479 16.151 158.724 15.8906 157.672 15.8906C156.141 15.8906 155 16.5833 154.25 17.9688V30H150.453V13.0938H154.031ZM167.609 21.4219C167.609 18.8177 168.214 16.7292 169.422 15.1562C170.63 13.5729 172.25 12.7812 174.281 12.7812C176.073 12.7812 177.521 13.4062 178.625 14.6562V6H182.422V30H178.984L178.797 28.25C177.661 29.625 176.146 30.3125 174.25 30.3125C172.271 30.3125 170.667 29.5156 169.438 27.9219C168.219 26.3281 167.609 24.1615 167.609 21.4219ZM171.406 21.75C171.406 23.4688 171.734 24.8125 172.391 25.7812C173.057 26.7396 174 27.2188 175.219 27.2188C176.771 27.2188 177.906 26.526 178.625 25.1406V17.9219C177.927 16.5677 176.802 15.8906 175.25 15.8906C174.021 15.8906 173.073 16.3802 172.406 17.3594C171.74 18.3281 171.406 19.7917 171.406 21.75ZM193.828 30.3125C191.422 30.3125 189.469 29.5573 187.969 28.0469C186.479 26.526 185.734 24.5052 185.734 21.9844V21.5156C185.734 19.8281 186.057 18.3229 186.703 17C187.359 15.6667 188.276 14.6302 189.453 13.8906C190.63 13.151 191.943 12.7812 193.391 12.7812C195.693 12.7812 197.469 13.5156 198.719 14.9844C199.979 16.4531 200.609 18.5312 200.609 21.2188V22.75H189.562C189.677 24.1458 190.141 25.25 190.953 26.0625C191.776 26.875 192.807 27.2812 194.047 27.2812C195.786 27.2812 197.203 26.5781 198.297 25.1719L200.344 27.125C199.667 28.1354 198.76 28.9219 197.625 29.4844C196.5 30.0365 195.234 30.3125 193.828 30.3125ZM193.375 15.8281C192.333 15.8281 191.49 16.1927 190.844 16.9219C190.208 17.651 189.802 18.6667 189.625 19.9688H196.859V19.6875C196.776 18.4167 196.438 17.4583 195.844 16.8125C195.25 16.1562 194.427 15.8281 193.375 15.8281ZM212.422 16.5625C211.922 16.4792 211.406 16.4375 210.875 16.4375C209.135 16.4375 207.964 17.1042 207.359 18.4375V30H203.562V13.0938H207.188L207.281 14.9844C208.198 13.5156 209.469 12.7812 211.094 12.7812C211.635 12.7812 212.083 12.8542 212.438 13L212.422 16.5625ZM224.297 25.4062C224.297 24.7292 224.016 24.2135 223.453 23.8594C222.901 23.5052 221.979 23.1927 220.688 22.9219C219.396 22.651 218.318 22.3073 217.453 21.8906C215.557 20.974 214.609 19.6458 214.609 17.9062C214.609 16.4479 215.224 15.2292 216.453 14.25C217.682 13.2708 219.245 12.7812 221.141 12.7812C223.161 12.7812 224.792 13.2812 226.031 14.2812C227.281 15.2812 227.906 16.5781 227.906 18.1719H224.109C224.109 17.4427 223.839 16.8385 223.297 16.3594C222.755 15.8698 222.036 15.625 221.141 15.625C220.307 15.625 219.625 15.8177 219.094 16.2031C218.573 16.5885 218.312 17.1042 218.312 17.75C218.312 18.3333 218.557 18.7865 219.047 19.1094C219.536 19.4323 220.526 19.7604 222.016 20.0938C223.505 20.4167 224.672 20.8073 225.516 21.2656C226.37 21.7135 227 22.2552 227.406 22.8906C227.823 23.526 228.031 24.2969 228.031 25.2031C228.031 26.724 227.401 27.9583 226.141 28.9062C224.88 29.8438 223.229 30.3125 221.188 30.3125C219.802 30.3125 218.568 30.0625 217.484 29.5625C216.401 29.0625 215.557 28.375 214.953 27.5C214.349 26.625 214.047 25.6823 214.047 24.6719H217.734C217.786 25.5677 218.125 26.2604 218.75 26.75C219.375 27.2292 220.203 27.4688 221.234 27.4688C222.234 27.4688 222.995 27.2812 223.516 26.9062C224.036 26.5208 224.297 26.0208 224.297 25.4062ZM230.641 21.3906C230.641 19.7344 230.969 18.2448 231.625 16.9219C232.281 15.5885 233.203 14.5677 234.391 13.8594C235.578 13.1406 236.943 12.7812 238.484 12.7812C240.766 12.7812 242.615 13.5156 244.031 14.9844C245.458 16.4531 246.229 18.401 246.344 20.8281L246.359 21.7188C246.359 23.3854 246.036 24.875 245.391 26.1875C244.755 27.5 243.839 28.5156 242.641 29.2344C241.453 29.9531 240.078 30.3125 238.516 30.3125C236.13 30.3125 234.219 29.5208 232.781 27.9375C231.354 26.3438 230.641 24.224 230.641 21.5781V21.3906ZM234.438 21.7188C234.438 23.4583 234.797 24.8229 235.516 25.8125C236.234 26.7917 237.234 27.2812 238.516 27.2812C239.797 27.2812 240.792 26.7812 241.5 25.7812C242.219 24.7812 242.578 23.3177 242.578 21.3906C242.578 19.6823 242.208 18.3281 241.469 17.3281C240.74 16.3281 239.745 15.8281 238.484 15.8281C237.245 15.8281 236.26 16.3229 235.531 17.3125C234.802 18.2917 234.438 19.7604 234.438 21.7188ZM253.094 13.0938L253.203 15.0469C254.453 13.5365 256.094 12.7812 258.125 12.7812C261.646 12.7812 263.438 14.7969 263.5 18.8281V30H259.703V19.0469C259.703 17.974 259.469 17.1823 259 16.6719C258.542 16.151 257.786 15.8906 256.734 15.8906C255.203 15.8906 254.062 16.5833 253.312 17.9688V30H249.516V13.0938H253.094Z" fill="#231F20"/>
<path d="M40.7344 17.25L38.1562 32.4531C37.8021 34.8802 36.7604 36.8125 35.0312 38.25C33.3125 39.6875 31.2292 40.3854 28.7812 40.3438C26.5104 40.3021 24.7135 39.6146 23.3906 38.2812C22.0781 36.9479 21.4792 35.2083 21.5938 33.0625L21.6406 32.4688L24.2188 17.25H28.0625L25.4844 32.4844C25.2969 33.9323 25.5104 35.0625 26.125 35.875C26.7396 36.6875 27.6875 37.1146 28.9688 37.1562C30.375 37.1979 31.5469 36.8177 32.4844 36.0156C33.4219 35.2135 34.0208 34.0625 34.2812 32.5625L36.8906 17.25H40.7344ZM59.0625 32.5781C58.6771 34.9531 57.6094 36.849 55.8594 38.2656C54.1094 39.6719 51.9792 40.3542 49.4688 40.3125C48.0208 40.2812 46.75 39.9375 45.6562 39.2812C44.5729 38.625 43.724 37.6719 43.1094 36.4219C42.4948 35.1615 42.151 33.7396 42.0781 32.1562C42.0156 30.9688 42.1615 29.3542 42.5156 27.3125C42.8698 25.2604 43.5469 23.4219 44.5469 21.7969C45.5573 20.1719 46.7917 18.9479 48.25 18.125C49.7188 17.3021 51.349 16.9062 53.1406 16.9375C55.401 16.9792 57.1875 17.6927 58.5 19.0781C59.8229 20.4531 60.526 22.3542 60.6094 24.7812H56.7812C56.7292 23.1562 56.3854 21.9844 55.75 21.2656C55.125 20.5365 54.1927 20.1562 52.9531 20.125C51.2552 20.0729 49.8333 20.6823 48.6875 21.9531C47.5417 23.224 46.7708 25.0729 46.375 27.5L46.0625 29.5781L45.9219 31.1719C45.8385 32.2448 45.9115 33.2552 46.1406 34.2031C46.3802 35.1406 46.7969 35.8594 47.3906 36.3594C47.9844 36.849 48.7396 37.1094 49.6562 37.1406C52.5625 37.2552 54.4271 35.7448 55.25 32.6094L59.0625 32.5781ZM65.8594 36.8438H75.8906L75.3281 40H61.4531L65.4062 17.25H69.2656L65.8594 36.8438ZM92.0781 34.7031H83.5625L80.8438 40H76.6875L88.9688 17.25H92.4375L96.8438 40H92.9688L92.0781 34.7031ZM85.1875 31.5156H91.5625L90.0156 22.1094L85.1875 31.5156Z" fill="white"/>
<path d="M132.672 42.9297C131.385 42.5599 130.448 42.1068 129.859 41.5703C129.276 41.0286 128.984 40.362 128.984 39.5703C128.984 38.6745 129.341 37.9349 130.055 37.3516C130.773 36.763 131.706 36.4688 132.852 36.4688C133.633 36.4688 134.328 36.6198 134.938 36.9219C135.552 37.224 136.026 37.6406 136.359 38.1719C136.698 38.7031 136.867 39.2839 136.867 39.9141H135.359C135.359 39.2266 135.141 38.6875 134.703 38.2969C134.266 37.901 133.648 37.7031 132.852 37.7031C132.112 37.7031 131.534 37.8672 131.117 38.1953C130.706 38.5182 130.5 38.9688 130.5 39.5469C130.5 40.0104 130.695 40.4036 131.086 40.7266C131.482 41.0443 132.151 41.3359 133.094 41.6016C134.042 41.8672 134.781 42.1615 135.312 42.4844C135.849 42.8021 136.245 43.1745 136.5 43.6016C136.76 44.0286 136.891 44.5312 136.891 45.1094C136.891 46.0312 136.531 46.7708 135.812 47.3281C135.094 47.8802 134.133 48.1562 132.93 48.1562C132.148 48.1562 131.419 48.0078 130.742 47.7109C130.065 47.4089 129.542 46.9974 129.172 46.4766C128.807 45.9557 128.625 45.3646 128.625 44.7031H130.133C130.133 45.3906 130.385 45.9349 130.891 46.3359C131.401 46.7318 132.081 46.9297 132.93 46.9297C133.721 46.9297 134.328 46.7682 134.75 46.4453C135.172 46.1224 135.383 45.6823 135.383 45.125C135.383 44.5677 135.188 44.138 134.797 43.8359C134.406 43.5286 133.698 43.2266 132.672 42.9297ZM141.984 46.9766C142.5 46.9766 142.951 46.8203 143.336 46.5078C143.721 46.1953 143.935 45.8047 143.977 45.3359H145.344C145.318 45.8203 145.151 46.2812 144.844 46.7188C144.536 47.1562 144.125 47.5052 143.609 47.7656C143.099 48.026 142.557 48.1562 141.984 48.1562C140.833 48.1562 139.917 47.7734 139.234 47.0078C138.557 46.237 138.219 45.1849 138.219 43.8516V43.6094C138.219 42.7865 138.37 42.0547 138.672 41.4141C138.974 40.7734 139.406 40.276 139.969 39.9219C140.536 39.5677 141.206 39.3906 141.977 39.3906C142.924 39.3906 143.711 39.6745 144.336 40.2422C144.966 40.8099 145.302 41.5469 145.344 42.4531H143.977C143.935 41.9062 143.727 41.4583 143.352 41.1094C142.982 40.7552 142.523 40.5781 141.977 40.5781C141.242 40.5781 140.672 40.8438 140.266 41.375C139.865 41.901 139.664 42.6641 139.664 43.6641V43.9375C139.664 44.9115 139.865 45.6615 140.266 46.1875C140.667 46.7135 141.24 46.9766 141.984 46.9766ZM148.414 40.5703C149.055 39.7839 149.888 39.3906 150.914 39.3906C152.701 39.3906 153.602 40.3984 153.617 42.4141V48H152.172V42.4062C152.167 41.7969 152.026 41.3464 151.75 41.0547C151.479 40.763 151.055 40.6172 150.477 40.6172C150.008 40.6172 149.596 40.7422 149.242 40.9922C148.888 41.2422 148.612 41.5703 148.414 41.9766V48H146.969V36H148.414V40.5703ZM155.398 43.6953C155.398 42.8672 155.56 42.1224 155.883 41.4609C156.211 40.7995 156.664 40.2891 157.242 39.9297C157.826 39.5703 158.49 39.3906 159.234 39.3906C160.385 39.3906 161.315 39.7891 162.023 40.5859C162.737 41.3828 163.094 42.4427 163.094 43.7656V43.8672C163.094 44.6901 162.935 45.4297 162.617 46.0859C162.305 46.737 161.854 47.2448 161.266 47.6094C160.682 47.974 160.01 48.1562 159.25 48.1562C158.104 48.1562 157.174 47.7578 156.461 46.9609C155.753 46.1641 155.398 45.1094 155.398 43.7969V43.6953ZM156.852 43.8672C156.852 44.8047 157.068 45.5573 157.5 46.125C157.938 46.6927 158.521 46.9766 159.25 46.9766C159.984 46.9766 160.568 46.6901 161 46.1172C161.432 45.5391 161.648 44.7318 161.648 43.6953C161.648 42.7682 161.427 42.0182 160.984 41.4453C160.547 40.8672 159.964 40.5781 159.234 40.5781C158.521 40.5781 157.945 40.862 157.508 41.4297C157.07 41.9974 156.852 42.8099 156.852 43.8672ZM164.523 43.6953C164.523 42.8672 164.685 42.1224 165.008 41.4609C165.336 40.7995 165.789 40.2891 166.367 39.9297C166.951 39.5703 167.615 39.3906 168.359 39.3906C169.51 39.3906 170.44 39.7891 171.148 40.5859C171.862 41.3828 172.219 42.4427 172.219 43.7656V43.8672C172.219 44.6901 172.06 45.4297 171.742 46.0859C171.43 46.737 170.979 47.2448 170.391 47.6094C169.807 47.974 169.135 48.1562 168.375 48.1562C167.229 48.1562 166.299 47.7578 165.586 46.9609C164.878 46.1641 164.523 45.1094 164.523 43.7969V43.6953ZM165.977 43.8672C165.977 44.8047 166.193 45.5573 166.625 46.125C167.062 46.6927 167.646 46.9766 168.375 46.9766C169.109 46.9766 169.693 46.6901 170.125 46.1172C170.557 45.5391 170.773 44.7318 170.773 43.6953C170.773 42.7682 170.552 42.0182 170.109 41.4453C169.672 40.8672 169.089 40.5781 168.359 40.5781C167.646 40.5781 167.07 40.862 166.633 41.4297C166.195 41.9974 165.977 42.8099 165.977 43.8672ZM175.602 48H174.156V36H175.602V48ZM181.508 43.6953C181.508 42.8672 181.669 42.1224 181.992 41.4609C182.32 40.7995 182.773 40.2891 183.352 39.9297C183.935 39.5703 184.599 39.3906 185.344 39.3906C186.495 39.3906 187.424 39.7891 188.133 40.5859C188.846 41.3828 189.203 42.4427 189.203 43.7656V43.8672C189.203 44.6901 189.044 45.4297 188.727 46.0859C188.414 46.737 187.964 47.2448 187.375 47.6094C186.792 47.974 186.12 48.1562 185.359 48.1562C184.214 48.1562 183.284 47.7578 182.57 46.9609C181.862 46.1641 181.508 45.1094 181.508 43.7969V43.6953ZM182.961 43.8672C182.961 44.8047 183.177 45.5573 183.609 46.125C184.047 46.6927 184.63 46.9766 185.359 46.9766C186.094 46.9766 186.677 46.6901 187.109 46.1172C187.542 45.5391 187.758 44.7318 187.758 43.6953C187.758 42.7682 187.536 42.0182 187.094 41.4453C186.656 40.8672 186.073 40.5781 185.344 40.5781C184.63 40.5781 184.055 40.862 183.617 41.4297C183.18 41.9974 182.961 42.8099 182.961 43.8672ZM191.727 48V40.6641H190.391V39.5469H191.727V38.6797C191.727 37.7734 191.969 37.0729 192.453 36.5781C192.938 36.0833 193.622 35.8359 194.508 35.8359C194.841 35.8359 195.172 35.8802 195.5 35.9688L195.422 37.1406C195.177 37.0938 194.917 37.0703 194.641 37.0703C194.172 37.0703 193.81 37.2083 193.555 37.4844C193.299 37.7552 193.172 38.1458 193.172 38.6562V39.5469H194.977V40.6641H193.172V48H191.727ZM202.711 36.625L206.43 45.9062L210.148 36.625H212.094V48H210.594V43.5703L210.734 38.7891L207 48H205.852L202.125 38.8125L202.273 43.5703V48H200.773V36.625H202.711ZM219.734 48C219.651 47.8333 219.583 47.5365 219.531 47.1094C218.859 47.8073 218.057 48.1562 217.125 48.1562C216.292 48.1562 215.607 47.9219 215.07 47.4531C214.539 46.9792 214.273 46.3802 214.273 45.6562C214.273 44.776 214.607 44.0938 215.273 43.6094C215.945 43.1198 216.888 42.875 218.102 42.875H219.508V42.2109C219.508 41.7057 219.357 41.3047 219.055 41.0078C218.753 40.7057 218.307 40.5547 217.719 40.5547C217.203 40.5547 216.771 40.6849 216.422 40.9453C216.073 41.2057 215.898 41.5208 215.898 41.8906H214.445C214.445 41.4688 214.594 41.0625 214.891 40.6719C215.193 40.276 215.599 39.9635 216.109 39.7344C216.625 39.5052 217.19 39.3906 217.805 39.3906C218.779 39.3906 219.542 39.6354 220.094 40.125C220.646 40.6094 220.932 41.2786 220.953 42.1328V46.0234C220.953 46.7995 221.052 47.4167 221.25 47.875V48H219.734ZM217.336 46.8984C217.789 46.8984 218.219 46.7812 218.625 46.5469C219.031 46.3125 219.326 46.0078 219.508 45.6328V43.8984H218.375C216.604 43.8984 215.719 44.4167 215.719 45.4531C215.719 45.9062 215.87 46.2604 216.172 46.5156C216.474 46.7708 216.862 46.8984 217.336 46.8984ZM224.586 39.5469L224.633 40.6094C225.279 39.7969 226.122 39.3906 227.164 39.3906C228.951 39.3906 229.852 40.3984 229.867 42.4141V48H228.422V42.4062C228.417 41.7969 228.276 41.3464 228 41.0547C227.729 40.763 227.305 40.6172 226.727 40.6172C226.258 40.6172 225.846 40.7422 225.492 40.9922C225.138 41.2422 224.862 41.5703 224.664 41.9766V48H223.219V39.5469H224.586ZM237.266 48C237.182 47.8333 237.115 47.5365 237.062 47.1094C236.391 47.8073 235.589 48.1562 234.656 48.1562C233.823 48.1562 233.138 47.9219 232.602 47.4531C232.07 46.9792 231.805 46.3802 231.805 45.6562C231.805 44.776 232.138 44.0938 232.805 43.6094C233.477 43.1198 234.419 42.875 235.633 42.875H237.039V42.2109C237.039 41.7057 236.888 41.3047 236.586 41.0078C236.284 40.7057 235.839 40.5547 235.25 40.5547C234.734 40.5547 234.302 40.6849 233.953 40.9453C233.604 41.2057 233.43 41.5208 233.43 41.8906H231.977C231.977 41.4688 232.125 41.0625 232.422 40.6719C232.724 40.276 233.13 39.9635 233.641 39.7344C234.156 39.5052 234.721 39.3906 235.336 39.3906C236.31 39.3906 237.073 39.6354 237.625 40.125C238.177 40.6094 238.464 41.2786 238.484 42.1328V46.0234C238.484 46.7995 238.583 47.4167 238.781 47.875V48H237.266ZM234.867 46.8984C235.32 46.8984 235.75 46.7812 236.156 46.5469C236.562 46.3125 236.857 46.0078 237.039 45.6328V43.8984H235.906C234.135 43.8984 233.25 44.4167 233.25 45.4531C233.25 45.9062 233.401 46.2604 233.703 46.5156C234.005 46.7708 234.393 46.8984 234.867 46.8984ZM240.406 43.7031C240.406 42.3854 240.711 41.3385 241.32 40.5625C241.93 39.7812 242.737 39.3906 243.742 39.3906C244.773 39.3906 245.578 39.7552 246.156 40.4844L246.227 39.5469H247.547V47.7969C247.547 48.8906 247.221 49.7526 246.57 50.3828C245.924 51.013 245.055 51.3281 243.961 51.3281C243.352 51.3281 242.755 51.1979 242.172 50.9375C241.589 50.6771 241.143 50.3203 240.836 49.8672L241.586 49C242.206 49.7656 242.964 50.1484 243.859 50.1484C244.562 50.1484 245.109 49.9505 245.5 49.5547C245.896 49.1589 246.094 48.6016 246.094 47.8828V47.1562C245.516 47.8229 244.727 48.1562 243.727 48.1562C242.737 48.1562 241.935 47.7578 241.32 46.9609C240.711 46.1641 240.406 45.0781 240.406 43.7031ZM241.859 43.8672C241.859 44.8203 242.055 45.5703 242.445 46.1172C242.836 46.6589 243.383 46.9297 244.086 46.9297C244.997 46.9297 245.667 46.5156 246.094 45.6875V41.8281C245.651 41.0208 244.987 40.6172 244.102 40.6172C243.398 40.6172 242.849 40.8906 242.453 41.4375C242.057 41.9844 241.859 42.7943 241.859 43.8672ZM253.242 48.1562C252.096 48.1562 251.164 47.7812 250.445 47.0312C249.727 46.276 249.367 45.2682 249.367 44.0078V43.7422C249.367 42.9036 249.526 42.1562 249.844 41.5C250.167 40.8385 250.615 40.3229 251.188 39.9531C251.766 39.5781 252.391 39.3906 253.062 39.3906C254.161 39.3906 255.016 39.7526 255.625 40.4766C256.234 41.2005 256.539 42.237 256.539 43.5859V44.1875H250.812C250.833 45.0208 251.076 45.6953 251.539 46.2109C252.008 46.7214 252.602 46.9766 253.32 46.9766C253.831 46.9766 254.263 46.8724 254.617 46.6641C254.971 46.4557 255.281 46.1797 255.547 45.8359L256.43 46.5234C255.721 47.612 254.659 48.1562 253.242 48.1562ZM253.062 40.5781C252.479 40.5781 251.99 40.7917 251.594 41.2188C251.198 41.6406 250.953 42.2344 250.859 43H255.094V42.8906C255.052 42.1562 254.854 41.5885 254.5 41.1875C254.146 40.7812 253.667 40.5781 253.062 40.5781ZM259.578 39.5469L259.617 40.4844C260.237 39.7552 261.073 39.3906 262.125 39.3906C263.307 39.3906 264.112 39.8438 264.539 40.75C264.82 40.3438 265.185 40.0156 265.633 39.7656C266.086 39.5156 266.62 39.3906 267.234 39.3906C269.089 39.3906 270.031 40.3724 270.062 42.3359V48H268.617V42.4219C268.617 41.8177 268.479 41.3672 268.203 41.0703C267.927 40.7682 267.464 40.6172 266.812 40.6172C266.276 40.6172 265.831 40.7786 265.477 41.1016C265.122 41.4193 264.917 41.849 264.859 42.3906V48H263.406V42.4609C263.406 41.2318 262.805 40.6172 261.602 40.6172C260.654 40.6172 260.005 41.0208 259.656 41.8281V48H258.211V39.5469H259.578ZM275.758 48.1562C274.612 48.1562 273.68 47.7812 272.961 47.0312C272.242 46.276 271.883 45.2682 271.883 44.0078V43.7422C271.883 42.9036 272.042 42.1562 272.359 41.5C272.682 40.8385 273.13 40.3229 273.703 39.9531C274.281 39.5781 274.906 39.3906 275.578 39.3906C276.677 39.3906 277.531 39.7526 278.141 40.4766C278.75 41.2005 279.055 42.237 279.055 43.5859V44.1875H273.328C273.349 45.0208 273.591 45.6953 274.055 46.2109C274.523 46.7214 275.117 46.9766 275.836 46.9766C276.346 46.9766 276.779 46.8724 277.133 46.6641C277.487 46.4557 277.797 46.1797 278.062 45.8359L278.945 46.5234C278.237 47.612 277.174 48.1562 275.758 48.1562ZM275.578 40.5781C274.995 40.5781 274.505 40.7917 274.109 41.2188C273.714 41.6406 273.469 42.2344 273.375 43H277.609V42.8906C277.568 42.1562 277.37 41.5885 277.016 41.1875C276.661 40.7812 276.182 40.5781 275.578 40.5781ZM282.102 39.5469L282.148 40.6094C282.794 39.7969 283.638 39.3906 284.68 39.3906C286.466 39.3906 287.367 40.3984 287.383 42.4141V48H285.938V42.4062C285.932 41.7969 285.792 41.3464 285.516 41.0547C285.245 40.763 284.82 40.6172 284.242 40.6172C283.773 40.6172 283.362 40.7422 283.008 40.9922C282.654 41.2422 282.378 41.5703 282.18 41.9766V48H280.734V39.5469H282.102ZM291.523 37.5V39.5469H293.102V40.6641H291.523V45.9062C291.523 46.2448 291.594 46.5 291.734 46.6719C291.875 46.8385 292.115 46.9219 292.453 46.9219C292.62 46.9219 292.849 46.8906 293.141 46.8281V48C292.76 48.1042 292.391 48.1562 292.031 48.1562C291.385 48.1562 290.898 47.9609 290.57 47.5703C290.242 47.1797 290.078 46.625 290.078 45.9062V40.6641H288.539V39.5469H290.078V37.5H291.523Z" fill="#231F20"/>
</svg>
